<?xml version="1.0" encoding="UTF-8" standalone="no"?>
<svg
   height="128"
   width="128"
   version="1.1"
   id="svg88"
   sodipodi:docname="icon.svg"
   inkscape:version="1.2.2 (b0a84865, 2022-12-01)"
   xmlns:inkscape="http://www.inkscape.org/namespaces/inkscape"
   xmlns:sodipodi="http://sodipodi.sourceforge.net/DTD/sodipodi-0.dtd"
   xmlns="http://www.w3.org/2000/svg"
   xmlns:svg="http://www.w3.org/2000/svg">
  <defs
     id="defs92" />
  <sodipodi:namedview
     id="namedview90"
     pagecolor="#505050"
     bordercolor="#eeeeee"
     borderopacity="1"
     inkscape:showpageshadow="0"
     inkscape:pageopacity="0"
     inkscape:pagecheckerboard="0"
     inkscape:deskcolor="#505050"
     showgrid="false"
     inkscape:zoom="3.6648661"
     inkscape:cx="47.204999"
     inkscape:cy="80.766935"
     inkscape:window-width="1920"
     inkscape:window-height="1052"
     inkscape:window-x="0"
     inkscape:window-y="0"
     inkscape:window-maximized="0"
     inkscape:current-layer="g68" />
  <g
     transform="translate(32 32)"
     id="g68">
    <path
       d="m-16-32c-8.86 0-16 7.13-16 15.99v95.98c0 8.86 7.13 15.99 16 15.99h96c8.86 0 16-7.13 16-15.99v-95.98c0-8.85-7.14-15.99-16-15.99z"
       fill="#363d52"
       id="path64"
       style="fill:#a02c2c" />
    <path
       d="m-16-32c-8.86 0-16 7.13-16 15.99v95.98c0 8.86 7.13 15.99 16 15.99h96c8.86 0 16-7.13 16-15.99v-95.98c0-8.85-7.14-15.99-16-15.99zm0 4h96c6.64 0 12 5.35 12 11.99v95.98c0 6.64-5.35 11.99-12 11.99h-96c-6.64 0-12-5.35-12-11.99v-95.98c0-6.64 5.36-11.99 12-11.99z"
       fill-opacity=".4"
       id="path66"
       style="fill:#280b0b" />
    <path
       sodipodi:type="spiral"
       style="fill:none;fill-rule:evenodd;stroke:#ffffff;stroke-width:6.24073;stroke-linecap:round;stroke-dasharray:none;stroke-dashoffset:0;stroke-opacity:1"
       id="path441"
       sodipodi:cx="71.770645"
       sodipodi:cy="57.225765"
       sodipodi:expansion="1"
       sodipodi:revolution="2"
       sodipodi:radius="21.609083"
       sodipodi:argument="-3.3745959"
       sodipodi:t0="0.16161616"
       d="m 72.557063,53.823083 c 2.877968,-0.675097 5.133484,2.177566 5.248026,4.797345 0.18969,4.338541 -3.965205,7.418839 -8.037352,7.271543 -5.774154,-0.20886 -9.736601,-5.763438 -9.295059,-11.277358 0.57707,-7.206394 7.565049,-12.068328 14.517365,-11.318577 8.638258,0.931565 14.407381,9.368203 13.342093,17.757372 C 87.053374,71.123693 77.159914,77.804169 67.334758,76.419018 59.587804,75.326853 53.134259,69.611082 50.745497,62.215316"
       transform="matrix(0.48626333,-1.8147595,1.9009022,0.50934522,-116.36598,129.56629)" />
  </g>
</svg>
